# AST/ASF file generated using VICON BodyLanguage
# -----------------------------------------------
:version 1.10
:name VICON
:units
  mass 1.0
  length 0.45
  angle deg
:documentation
   .ast/.asf automatically generated from VICON data using
   VICON BodyBuilder and BodyLanguage model FoxedUp or BRILLIANT.MOD
:root
   order TX TY TZ RX RY RZ
   axis XYZ
   position 0 0 0  
   orientation 0 0 0 
:bonedata
  begin
     id 1 
     name lhipjoint
     direction 0.62366 -0.717238 0.310833 
     length 2.53602 
     axis 0 0 0  XYZ
  end
  begin
     id 2 
     name lfemur
     direction 0.34202 -0.939693 0  
     length 7.40817  
     axis 0 0 20  XYZ
    dof rx ry rz
    limits (-160.0 20.0)
           (-70.0 70.0)
           (-60.0 70.0)
  end
  begin
     id 3 
     name ltibia
     direction 0.34202 -0.939693 0   
     length 7.7045   
     axis 0 0 20   XYZ
    dof rx
    limits (-10.0 170.0)
  end
  begin
     id 4 
     name lfoot
     direction 0.0673888 -0.185149 0.980397   
     length 2.09456   
     axis -90 7.62852e-016 20   XYZ
    dof rx rz
    limits (-45.0 90.0)
           (-70.0 20.0)
  end
  begin
     id 5 
     name ltoes
     direction 1.53575e-011 -4.21994e-011 1   
     length 1.05543   
     axis -90 7.62852e-016 20   XYZ
    dof rx
    limits (-90.0 20.0)
  end
  begin
     id 6 
     name rhipjoint
     direction -0.489018 -0.800347 0.346851   
     length 2.27268  
     axis 0 0 0  XYZ 
  end
  begin
     id 7 
     name rfemur
     direction -0.34202 -0.939693 0   
     length 7.55487   
     axis 0 0 -20   XYZ
    dof rx ry rz
    limits (-160.0 20.0)
           (-70.0 70.0)
           (-70.0 60.0)
  end
  begin
     id 8 
     name rtibia
     direction -0.34202 -0.939693 0   
     length 7.78969   
     axis 0 0 -20   XYZ
    dof rx
    limits (-10.0 170.0)
 end
 begin
     id 9 
     name rfoot
     direction -0.0859318 -0.236096 0.967923   
     length 2.19143  
     axis -90 -7.62852e-016 -20   XYZ
    dof rx rz
    limits (-45.0 90.0)
           (-20.0 70.0)
  end
  begin
     id 10 
     name rtoes
     direction -1.53538e-011 -4.21989e-011 1   
     length 1.09845   
     axis -90 -7.62852e-016 -20   XYZ
    dof rx
    limits (-90.0 20.0)
  end
  begin
     id 11 
     name lowerback
     direction -0.00762546 0.998978 -0.0445553   
     length 1.98161   
     axis 0 0 0   XYZ
    dof rx ry rz
    limits (-20.0 45.0)
           (-30.0 30.0)
           (-30.0 30.0)
  end
  begin
     id 12 
     name upperback
     direction 0.0422361 0.998867 -0.0219156   
     length 1.97558   
     axis 0 0 0   XYZ
    dof rx ry rz
    limits (-20.0 45.0)
           (-30.0 30.0)
           (-30.0 30.0)
  end
  begin
     id 13 
     name thorax
     direction 0.0442465 0.999021 7.47603e-005   
     length 1.97799   
     axis 0 0 0   XYZ
    dof rx ry rz
    limits (-20.0 45.0)
           (-30.0 30.0)
           (-30.0 30.0)
  end
  begin
     id 14 
     name lowerneck
     direction 0.00312169 0.984641 0.174564   
     length 1.78995   
     axis 0 0 0   XYZ
    dof rx ry rz
    limits (-20.0 45.0)
           (-30.0 30.0)
           (-30.0 30.0)
  end
  begin
     id 15 
     name upperneck
     direction -0.0383028 0.985255 -0.166749   
     length 1.83053   
     axis 0 0 0   XYZ
    dof rx ry rz
    limits (-20.0 45.0)
           (-30.0 30.0)
           (-30.0 30.0)
  end
  begin
     id 16
     name head
     direction -0.0129546 0.997059 -0.0755386  
     length 1.84088  
     axis 0 0 0   XYZ
    dof rx ry rz
    limits (-20.0 45.0)
           (-30.0 30.0)
           (-30.0 30.0)
  end
  begin
     id 17 
     name lclavicle
     direction 0.912857 0.370519 -0.171488  
     length 3.51279  
     axis 0 0 0   XYZ
    dof ry rz
    limits (-20.0 10.0)
           (0.0 20.0)
  end
  begin
     id 18 
     name lhumerus
     direction 1 -4.48962e-011 3.64361e-027   
     length 4.95663   
     axis 180 -30 -90   XYZ
    dof rx ry rz
    limits (-60.0 90.0)
           (-90.0 90.0)
           (-90.0 90.0)
  end
  begin
     id 19
     name lradius
     direction 1 -4.48974e-011 5.97202e-027   
     length 3.38177   
     axis 180 -30 -90   XYZ
    dof rx
    limits (-10.0 170.0)
  end
  begin
     id 20
     name lwrist
     direction 1 -4.4896e-011 9.83288e-027   
     length 1.69088   
     axis -9.31221e-015 90 90   XYZ
    dof ry
    limits (-180.0 0.0)
 end
  begin
     id 21 
     name lhand
     direction 1 -4.4902e-011 1.96551e-026   
     length 0.662909   
     axis -1.25475e-014 90 90   XYZ
    dof rx rz
    limits (-90.0 90.0)
           (-45.0 45.0)
  end
  begin
     id 22 
     name lfingers
     direction 1 -4.48971e-011 3.93277e-026   
     length 0.534454   
     axis -2.50945e-014 90 90   XYZ
    dof rx
    limits (0.0 90.0)
  end
  begin
     id 23
     name lthumb
     direction 0.707107 -6.34933e-011 0.707107   
     length 0.767373   
     axis -90 45 -4.80359e-014   XYZ
    dof rx rz
    limits (-45.0 45.0)
           (-45.0 45.0)
  end
  begin
     id 24 
     name rclavicle
     direction -0.900919 0.395364 -0.178976   
     length 3.40627  
     axis 0 0 0   XYZ 
    dof ry rz
    limits (-10.0 20.0)
           (-20.0 0.0)
  end
  begin
     id 25 
     name rhumerus
     direction -1 -4.48969e-011 1.03875e-027  
     length 5.08365   
     axis 180 30 90   XYZ
    dof rx ry rz
    limits (-90.0 60.0)
           (-90.0 90.0)
           (-90.0 90.0)
  end
  begin
     id 26 
     name rradius
     direction -1 -4.48951e-011 5.02733e-027   
     length 3.35984   
     axis 180 30 90   XYZ
    dof rx
    limits (-10.0 170.0)
  end
  begin
     id 27 
     name rwrist
     direction -1 -4.49011e-011 9.82828e-027   
     length 1.67992   
     axis -9.31221e-015 -90 -90   XYZ
    dof ry
    limits (-180.0 0.0)
  end
  begin
     id 28
     name rhand
     direction -1 -4.48894e-011 1.96774e-026   
     length 0.820764   
     axis -1.25475e-014 -90 -90   XYZ
    dof rx rz
    limits (-90.0 90.0)
           (-45.0 45.0)
  end
  begin
     id 29
     name rfingers
     direction -1 -4.49095e-011 3.92833e-026   
     length 0.661721   
     axis -2.50945e-014 -90 -90   XYZ
    dof rx
    limits (0.0 90.0)
  end
  begin
     id 30
     name rthumb
     direction -0.707107 -6.34881e-011 0.707107   
     length 0.950103   
     axis -90 -45 4.80359e-014   XYZ
    dof rx rz
    limits (-45.0 45.0)
           (-45.0 45.0)
  end
:hierarchy
  begin
    root lhipjoint rhipjoint lowerback
    lhipjoint lfemur
    lfemur ltibia
    ltibia lfoot
    lfoot ltoes
    rhipjoint rfemur
    rfemur rtibia
    rtibia rfoot
    rfoot rtoes
    lowerback upperback
    upperback thorax
    thorax lowerneck lclavicle rclavicle
    lowerneck upperneck
    upperneck head
    lclavicle lhumerus
    lhumerus lradius
    lradius lwrist
    lwrist lhand lthumb
    lhand lfingers
    rclavicle rhumerus
    rhumerus rradius
    rradius rwrist
    rwrist rhand rthumb
    rhand rfingers
  end

#!OML:ASF I:\golf\golf\golf 2\Subject 1\2002-09-07\Subject1.ASF
:FULLY-SPECIFIED
:DEGREES
1
root -5.97557 17.897 0.320817 -77.6043 85.2202 -94.8441
lowerback -1.17903 1.80382 -1.12229
upperback 3.42467 2.39812 3.79609
thorax 3.98865 1.1277 4.67482
lowerneck -14.6367 -1.69852 1.75661
upperneck 39.0215 0.0942412 -3.39186
head 16.4688 0.38407 -1.63318
rclavicle -3.45885e-014 -3.97569e-016
rhumerus -6.13346 -4.59641 -102.3
rradius 21.097
rwrist -35.4237
rhand -11.5898 -8.01488
rfingers 7.12502
rthumb 14.4522 -37.4916
lclavicle -3.45885e-014 -3.97569e-016
lhumerus -10.6292 -45.1422 110.469
lradius 24.0195
lwrist 42.0539
lhand -12.5676 67.6441
lfingers 7.12502
lthumb -166.49 82.8142
rfemur -27.7146 -0.221833 12.5795
rtibia 22.4587
rfoot -6.33291 -9.0078
rtoes 4.15651
lfemur -28.5711 9.42919 -6.86419
ltibia 26.4486
lfoot -9.71296 -0.227578
ltoes -20.6202
2
root -5.97744 17.8961 0.315793 -78.8681 85.2028 -96.1505
lowerback -1.22851 1.7667 -1.05402
upperback 3.40778 2.34578 3.82161
thorax 4.00531 1.10343 4.66242
lowerneck -14.6233 -1.70718 1.72861
upperneck 39.0288 0.102681 -3.41569
head 16.4699 0.380951 -1.63704
rclavicle -1.51076e-014 5.56597e-015
rhumerus -6.25982 -4.36438 -102.351
rradius 21.4131
rwrist -36.9231
rhand -12.268 -7.99023
rfingers 7.12502
rthumb 13.7987 -37.5126
lclavicle -1.51076e-014 5.56597e-015
lhumerus -10.6291 -45.0157 110.432
lradius 24.0431
lwrist 42.2319
lhand -12.9508 67.9715
lfingers 7.12502
lthumb -166.859 82.4626
rfemur -27.7667 -0.353121 12.6252
rtibia 22.4918
rfoot -6.34389 -9.0234
rtoes 4.04019
lfemur -28.6635 9.29487 -6.83766
ltibia 26.4682
lfoot -9.70467 -0.214638
ltoes -20.4996
3
root -5.97828 17.8953 0.315814 -78.6109 85.1827 -95.898
lowerback -1.25241 1.79252 -1.05509
upperback 3.40584 2.38004 3.83504
thorax 4.01332 1.12026 4.67946
lowerneck -14.6266 -1.7466 1.7629
upperneck 39.0391 0.0693661 -3.50397
head 16.4743 0.361118 -1.68821
rclavicle 8.94531e-015 1.03368e-014
rhumerus -6.34467 -4.50155 -102.378
rradius 21.6538
rwrist -37.8355
rhand -12.2974 -8.11591
rfingers 7.12502
rthumb 13.7704 -37.6402
lclavicle 8.94531e-015 1.03368e-014
lhumerus -10.6351 -44.9252 110.405
lradius 24.0705
lwrist 42.2953
lhand -13.1092 68.3054
lfingers 7.12502
lthumb -167.012 82.1188
rfemur -27.7957 -0.318087 12.6487
rtibia 22.5158
rfoot -6.10787 -9.05622
rtoes 3.56897
lfemur -28.6737 9.36416 -6.83098
ltibia 26.4758
lfoot -9.70362 -0.249933
ltoes -20.3249
4
root -5.98005 17.8939 0.3164 -77.9219 85.1985 -95.1986
lowerback -1.25508 1.83391 -1.06334
upperback 3.41479 2.43582 3.80813
thorax 4.01997 1.14781 4.65858
lowerneck -14.6288 -1.76364 1.82046
upperneck 39.0124 0.0462577 -3.56651
head 16.459 0.350823 -1.7298
rclavicle 0 3.81667e-014
rhumerus -6.34614 -4.8421 -102.398
rradius 21.7381
rwrist -38.0859
rhand -12.0961 -8.25787
rfingers 7.12502
rthumb 13.9644 -37.7689
lclavicle 0 3.81667e-014
lhumerus -10.6474 -44.939 110.342
lradius 24.111
lwrist 42.2958
lhand -13.0777 68.5715
lfingers 7.12502
lthumb -166.982 81.8547
rfemur -27.812 -0.190277 12.6053
rtibia 22.5316
rfoot -7.72176 -9.06125
rtoes 16.0945
lfemur -28.6626 9.44607 -6.86513
ltibia 26.4879
lfoot -9.67989 -0.242759
ltoes -20.207
5
root -5.98159 17.8934 0.315138 -77.9985 85.2386 -95.2873
lowerback -1.29095 1.84052 -1.06556
upperback 3.42297 2.44443 3.7841
thorax 4.04895 1.15154 4.6369
lowerneck -14.633 -1.75259 1.82248
upperneck 38.9776 0.0598761 -3.57197
head 16.4422 0.354684 -1.72961
rclavicle -2.54444e-014 -3.45885e-014
rhumerus -6.35113 -4.85737 -102.409
rradius 21.8224
rwrist -38.4753
rhand -12.1949 -8.42798
rfingers 7.12502
rthumb 13.8692 -37.9455
lclavicle -2.54444e-014 -3.45885e-014
lhumerus -10.6572 -44.9929 110.267
lradius 24.2023
lwrist 42.3781
lhand -13.1539 68.7942
lfingers 7.12502
lthumb -167.055 81.6274
rfemur -27.8306 -0.176233 12.5493
rtibia 22.5343
rfoot -6.45494 -9.07438
rtoes -14.7139
lfemur -28.6904 9.36973 -6.89888
ltibia 26.5057
lfoot -9.65625 -0.192482
ltoes -20.1779
6
root -5.98255 17.8929 0.312708 -78.702 85.2199 -96.006
lowerback -1.30277 1.82582 -1.03865
upperback 3.41737 2.42363 3.8169
thorax 4.05141 1.14186 4.65554
lowerneck -14.6485 -1.73042 1.78295
upperneck 38.9794 0.103402 -3.56266
head 16.4494 0.368149 -1.71088
rclavicle -5.36719e-015 7.95139e-015
rhumerus -6.39998 -4.75746 -102.371
rradius 21.9322
rwrist -38.843
rhand -11.9456 -8.76098
rfingers 7.12502
rthumb 14.1094 -38.262
lclavicle -5.36719e-015 7.95139e-015
lhumerus -10.648 -44.9164 110.249
lradius 24.249
lwrist 42.3651
lhand -13.2029 68.8242
lfingers 7.12502
lthumb -167.102 81.5944
rfemur -27.8365 -0.227146 12.5666
rtibia 22.5355
rfoot -6.63618 -9.18937
rtoes -6.09157
lfemur -28.7433 9.29716 -6.87384
ltibia 26.5284
lfoot -9.67375 -0.199063
ltoes -20.2023
7
root -5.98314 17.8924 0.310902 -79.0826 85.1728 -96.3789
lowerback -1.29126 1.83616 -0.982981
upperback 3.4216 2.43587 3.83987
thorax 4.04948 1.14983 4.64829
lowerneck -14.6568 -1.71336 1.81552
upperneck 38.9801 0.125768 -3.5784
head 16.4527 0.380385 -1.71976
rclavicle -3.95581e-014 -4.21423e-014
rhumerus -6.43604 -4.91893 -102.343
rradius 22.0474
rwrist -39.0564
rhand -11.4787 -9.03524
rfingers 7.12502
rthumb 14.5593 -38.5043
lclavicle -3.95581e-014 -4.21423e-014
lhumerus -10.6212 -44.7439 110.209
lradius 24.2292
lwrist 42.0358
lhand -12.8374 68.5533
lfingers 7.12502
lthumb -166.75 81.8878
rfemur -27.8229 -0.237537 12.6127
rtibia 22.5383
rfoot -6.43008 -9.17193
rtoes -5.03302
lfemur -28.7641 9.35277 -6.84717
ltibia 26.547
lfoot -9.70174 -0.249947
ltoes -20.3451
8
root -5.98364 17.8919 0.310891 -78.9935 85.1858 -96.2955
lowerback -1.32699 1.87602 -0.979959
upperback 3.43083 2.48879 3.82551
thorax 4.07549 1.17589 4.63565
lowerneck -14.6429 -1.72592 1.83284
upperneck 38.9748 0.0956132 -3.56032
head 16.4449 0.3738 -1.71967
rclavicle -1.88845e-014 -3.10104e-014
rhumerus -6.43733 -5.16936 -102.337
rradius 22.1607
rwrist -39.4749
rhand -11.4203 -9.0688
rfingers 7.12502
rthumb 14.6155 -38.5338
lclavicle -1.88845e-014 -3.10104e-014
lhumerus -10.6792 -44.8501 110.165
lradius 24.3687
lwrist 41.9912
lhand -12.4768 68.4259
lfingers 7.12502
lthumb -166.402 82.0382
rfemur -27.836 -0.220507 12.5917
rtibia 22.5422
rfoot -6.64982 -9.08818
rtoes -11.0113
lfemur -28.7796 9.4232 -6.88561
ltibia 26.5604
lfoot -9.7027 -0.286542
ltoes -20.5126
9
root -5.98438 17.892 0.310532 -79.3375 85.2088 -96.6254
lowerback -1.32225 1.90189 -0.98851
upperback 3.42972 2.52384 3.82314
thorax 4.06836 1.19327 4.63919
lowerneck -14.624 -1.75062 1.77252
upperneck 38.9828 0.0502703 -3.48106
head 16.4428 0.358476 -1.68137
rclavicle -2.48481e-014 -1.35174e-014
rhumerus -6.48099 -5.26795 -102.304
rradius 22.2898
rwrist -40.1893
rhand -11.5974 -9.00739
rfingers 7.12502
rthumb 14.445 -38.4847
lclavicle -2.48481e-014 -1.35174e-014
lhumerus -10.811 -45.1234 110.182
lradius 24.6142
lwrist 42.3052
lhand -12.5855 68.7344
lfingers 7.12502
lthumb -166.507 81.7227
rfemur -27.8225 -0.257108 12.5702
rtibia 22.5519
rfoot -6.81285 -9.1358
rtoes -7.3574
lfemur -28.775 9.42426 -6.91499
ltibia 26.5564
lfoot -9.70558 -0.341361
ltoes -20.4461
10
root -5.98549 17.8923 0.308785 -80.0674 85.2477 -97.3063
lowerback -1.26944 1.90835 -1.01419
upperback 3.44197 2.53399 3.81864
thorax 4.04943 1.19791 4.64743
lowerneck -14.6233 -1.76515 1.75352
upperneck 38.9721 0.00707582 -3.4163
head 16.4352 0.346659 -1.65663
rclavicle -3.29983e-014 -2.38542e-014
rhumerus -6.49784 -5.47333 -102.322
rradius 22.3808
rwrist -40.8211
rhand -11.9581 -8.95277
rfingers 7.12502
rthumb 14.0974 -38.4546
lclavicle -3.29983e-014 -2.38542e-014
lhumerus -10.8881 -45.2829 110.181
lradius 24.7753
lwrist 42.4239
lhand -12.7479 69.0953
lfingers 7.12502
lthumb -166.664 81.3514
rfemur -27.7597 -0.335224 12.5361
rtibia 22.5563
rfoot -8.12242 -9.00436
rtoes 20.1303
lfemur -28.7408 9.39443 -6.96075
ltibia 26.5389
lfoot -9.71496 -0.402253
ltoes -20.2655
11
root -5.98658 17.892 0.307405 -80.2475 85.3204 -97.447
lowerback -1.23134 1.93242 -1.08224
upperback 3.45826 2.56886 3.79372
thorax 4.04001 1.21332 4.66003
lowerneck -14.6416 -1.79103 1.77719
upperneck 38.9619 -0.0548715 -3.38677
head 16.4314 0.328202 -1.65875
rclavicle 2.56432e-014 2.14687e-014
rhumerus -6.45618 -5.81811 -102.36
rradius 22.4059
rwrist -41.1938
rhand -12.2117 -8.96925
rfingers 7.12502
rthumb 13.853 -38.4879
lclavicle 2.56432e-014 2.14687e-014
lhumerus -10.9553 -45.5568 110.156
lradius 24.929
lwrist 42.4938
lhand -12.7779 69.3945
lfingers 7.12502
lthumb -166.693 81.0503
rfemur -27.7071 -0.340633 12.4481
rtibia 22.5431
rfoot -8.01261 -9.05292
rtoes 19.8193
lfemur -28.702 9.33047 -7.02674
ltibia 26.5271
lfoot -9.71416 -0.411228
ltoes -19.7429
